<svg viewBox="0 0 298 106" fill="none" xmlns="http://www.w3.org/2000/svg">
<path d="M32.7784 27.7828C32.813 29.1291 33.0891 30.3029 33.607 31.304C34.1593 32.2706 34.9015 33.0646 35.8336 33.686C36.7657 34.3073 37.8876 34.7734 39.1994 35.0841C40.5112 35.3948 41.9438 35.5501 43.4973 35.5501C44.9127 35.5501 46.2417 35.3948 47.4845 35.0841C48.7273 34.7389 49.832 34.2383 50.7986 33.5824C51.7652 32.892 52.5246 32.0635 53.077 31.0969C53.6293 30.0957 53.9055 28.9393 53.9055 27.6275C53.9055 26.005 53.5775 24.6932 52.9216 23.692C52.2657 22.6909 51.4027 21.8969 50.3325 21.3101C49.2969 20.6887 48.0886 20.2054 46.7078 19.8602C45.3615 19.515 43.9806 19.187 42.5652 18.8763C41.1499 18.5656 39.7517 18.2204 38.3709 17.8407C37.0246 17.4609 35.8163 16.9431 34.7462 16.2872C33.7105 15.5968 32.8647 14.6992 32.2088 13.5946C31.5529 12.4899 31.225 11.0745 31.225 9.34844C31.225 7.79498 31.5357 6.44865 32.1571 5.30944C32.7784 4.17024 33.6242 3.23817 34.6944 2.51322C35.7991 1.75375 37.0763 1.18415 38.5262 0.804412C40.0107 0.424679 41.5814 0.234812 43.2384 0.234812C44.6883 0.234812 46.0864 0.407419 47.4327 0.752631C48.7791 1.06332 49.97 1.54662 51.0057 2.20253C52.0758 2.85843 52.9389 3.7042 53.5948 4.73984C54.2852 5.74096 54.6822 6.91468 54.7858 8.26102L54.8376 8.72705H52.5591C52.5246 7.58785 52.2312 6.60399 51.6789 5.77548C51.1265 4.94697 50.4188 4.2738 49.5558 3.75599C48.6928 3.23817 47.7089 2.85843 46.6042 2.61678C45.4995 2.34061 44.3431 2.20253 43.1348 2.20253C41.7885 2.20253 40.5285 2.34061 39.3547 2.61678C38.181 2.89295 37.1454 3.32447 36.2478 3.91133C35.3848 4.46367 34.6944 5.20588 34.1766 6.13796C33.6933 7.03551 33.4516 8.10567 33.4516 9.34844C33.4516 10.8329 33.7796 12.0238 34.4355 12.9214C35.0914 13.8189 35.9371 14.5439 36.9728 15.0962C38.0429 15.6486 39.2512 16.0801 40.5975 16.3908C41.9784 16.7015 43.3765 17.0122 44.7919 17.3229C46.2072 17.6335 47.5881 18.0133 48.9344 18.4621C50.3153 18.8763 51.5235 19.4632 52.5591 20.2226C53.6293 20.9476 54.4923 21.9142 55.1482 23.1224C55.8041 24.2962 56.1321 25.8151 56.1321 27.6792C56.1321 29.2327 55.7869 30.6308 55.0965 31.8736C54.4406 33.0818 53.5257 34.1002 52.352 34.9287C51.2128 35.7572 49.8837 36.3959 48.3648 36.8447C46.8459 37.2934 45.2234 37.5178 43.4973 37.5178C41.9438 37.5178 40.3904 37.3452 38.8369 37C37.2835 36.6893 35.8854 36.1542 34.6426 35.3948C33.4343 34.6353 32.4505 33.6342 31.691 32.3914C30.9315 31.1486 30.5518 29.6124 30.5518 27.7828H32.7784ZM61.3722 0.752631H63.4953V6.34508H61.3722V0.752631ZM61.3722 10.0734H63.4953V37H61.3722V10.0734ZM70.2095 10.0216H72.3326V15.0445C73.023 13.422 74.1795 12.1101 75.802 11.109C77.4245 10.0734 79.4267 9.55556 81.8087 9.55556C83.1205 9.55556 84.3115 9.77995 85.3816 10.2287C86.4518 10.6775 87.3666 11.3162 88.1261 12.1447C88.8855 12.9732 89.4551 13.957 89.8349 15.0962C90.2491 16.2354 90.4563 17.4782 90.4563 18.8245V37H88.3332V18.8245C88.3332 16.5116 87.6946 14.6992 86.4173 13.3874C85.1745 12.0756 83.4139 11.4197 81.1355 11.4197C79.7547 11.4197 78.5291 11.6441 77.459 12.0929C76.3888 12.5071 75.474 13.1113 74.7145 13.9052C73.9551 14.6647 73.3682 15.5623 72.954 16.5979C72.5742 17.599 72.3671 18.7037 72.3326 19.912V37H70.2095V10.0216ZM106.781 34.7734C108.507 34.7734 109.939 34.4282 111.078 33.7377C112.218 33.0128 113.115 32.1152 113.771 31.0451C114.462 29.9404 114.945 28.7149 115.221 27.3686C115.497 26.0222 115.635 24.7104 115.635 23.4331C115.601 21.9487 115.445 20.4988 115.169 19.0834C114.893 17.6335 114.427 16.339 113.771 15.1998C113.115 14.0606 112.218 13.1458 111.078 12.4554C109.974 11.7649 108.558 11.4197 106.832 11.4197C105.072 11.4197 103.605 11.7994 102.431 12.5589C101.257 13.3184 100.325 14.285 99.6346 15.4587C98.9442 16.5979 98.4609 17.8579 98.1847 19.2388C97.9085 20.5851 97.7705 21.8624 97.7705 23.0707C97.7705 24.3134 97.9085 25.6252 98.1847 27.0061C98.4609 28.3869 98.9442 29.647 99.6346 30.7862C100.325 31.9254 101.24 32.8747 102.379 33.6342C103.553 34.3936 105.02 34.7734 106.781 34.7734ZM98.6508 39.1748C98.9269 41.2461 99.7382 42.9031 101.085 44.1459C102.431 45.3887 104.399 46.0101 106.988 46.0101C108.541 46.0101 109.87 45.7684 110.975 45.2851C112.08 44.8363 112.977 44.1804 113.668 43.3174C114.392 42.4544 114.91 41.4187 115.221 40.2105C115.566 39.0368 115.739 37.7422 115.739 36.3268V29.9059C115.394 30.8034 114.962 31.6665 114.444 32.495C113.926 33.289 113.271 33.9966 112.477 34.618C111.717 35.2394 110.82 35.74 109.784 36.1197C108.783 36.4649 107.626 36.6375 106.314 36.6375C104.278 36.6375 102.569 36.206 101.188 35.343C99.8417 34.4799 98.7543 33.3925 97.9258 32.0807C97.0973 30.7689 96.5104 29.319 96.1652 27.731C95.82 26.1431 95.6474 24.6069 95.6474 23.1224C95.6474 21.638 95.82 20.1018 96.1652 18.5138C96.545 16.8913 97.1491 15.4242 97.9776 14.1124C98.8061 12.8006 99.9108 11.7131 101.292 10.8501C102.707 9.98708 104.45 9.55556 106.522 9.55556C107.833 9.55556 108.973 9.74543 109.939 10.1252C110.94 10.5049 111.803 11.0055 112.528 11.6268C113.288 12.2482 113.926 12.9732 114.444 13.8017C114.962 14.6302 115.394 15.5105 115.739 16.4426V10.0734H117.862V36.534C117.862 38.191 117.637 39.7099 117.189 41.0908C116.774 42.4716 116.119 43.6626 115.221 44.6637C114.358 45.6994 113.236 46.4934 111.855 47.0457C110.509 47.598 108.904 47.8742 107.039 47.8742C105.382 47.8742 103.915 47.6498 102.638 47.201C101.395 46.7868 100.325 46.1999 99.4275 45.4405C98.5299 44.681 97.8222 43.7662 97.3044 42.696C96.8211 41.6259 96.5104 40.4521 96.3723 39.1748H98.6508ZM124.597 0.752631H126.72V37H124.597V0.752631ZM152.076 22.2939C152.076 20.7059 151.886 19.2561 151.506 17.9442C151.126 16.5979 150.574 15.4414 149.849 14.4748C149.124 13.5083 148.209 12.766 147.104 12.2482C146 11.6959 144.688 11.4197 143.169 11.4197C141.685 11.4197 140.373 11.7304 139.234 12.3518C138.129 12.9732 137.197 13.7844 136.437 14.7855C135.712 15.7867 135.16 16.9431 134.78 18.2549C134.401 19.5667 134.176 20.9131 134.107 22.2939H152.076ZM153.94 29.4916C153.456 31.8736 152.334 33.8068 150.574 35.2912C148.848 36.7756 146.466 37.5178 143.428 37.5178C141.391 37.5178 139.648 37.1553 138.198 36.4304C136.748 35.7055 135.557 34.7216 134.625 33.4788C133.693 32.2015 133.003 30.7171 132.554 29.0256C132.105 27.334 131.881 25.5389 131.881 23.6403C131.881 21.7761 132.105 19.9983 132.554 18.3067C133.003 16.6152 133.693 15.1308 134.625 13.8535C135.557 12.5417 136.731 11.506 138.146 10.7465C139.562 9.95256 141.236 9.55556 143.169 9.55556C145.068 9.55556 146.708 9.90078 148.088 10.5912C149.504 11.2816 150.66 12.231 151.558 13.4392C152.49 14.6129 153.18 16.0283 153.629 17.6853C154.078 19.3078 154.302 21.0684 154.302 22.9671V24.1063H134.107C134.107 25.6598 134.28 27.1442 134.625 28.5595C134.97 29.9404 135.523 31.1659 136.282 32.2361C137.042 33.2717 138.008 34.1002 139.182 34.7216C140.39 35.343 141.823 35.6537 143.48 35.6537C145.758 35.6537 147.588 35.1013 148.969 33.9966C150.384 32.8574 151.333 31.3558 151.817 29.4916H153.94ZM160.188 27.7828C160.223 29.1291 160.499 30.3029 161.017 31.304C161.569 32.2706 162.311 33.0646 163.243 33.686C164.176 34.3073 165.297 34.7734 166.609 35.0841C167.921 35.3948 169.354 35.5501 170.907 35.5501C172.323 35.5501 173.652 35.3948 174.894 35.0841C176.137 34.7389 177.242 34.2383 178.208 33.5824C179.175 32.892 179.935 32.0635 180.487 31.0969C181.039 30.0957 181.315 28.9393 181.315 27.6275C181.315 26.005 180.987 24.6932 180.332 23.692C179.676 22.6909 178.813 21.8969 177.742 21.3101C176.707 20.6887 175.499 20.2054 174.118 19.8602C172.771 19.515 171.39 19.187 169.975 18.8763C168.56 18.5656 167.162 18.2204 165.781 17.8407C164.434 17.4609 163.226 16.9431 162.156 16.2872C161.12 15.5968 160.275 14.6992 159.619 13.5946C158.963 12.4899 158.635 11.0745 158.635 9.34844C158.635 7.79498 158.946 6.44865 159.567 5.30944C160.188 4.17024 161.034 3.23817 162.104 2.51322C163.209 1.75375 164.486 1.18415 165.936 0.804412C167.421 0.424679 168.991 0.234812 170.648 0.234812C172.098 0.234812 173.496 0.407419 174.843 0.752631C176.189 1.06332 177.38 1.54662 178.416 2.20253C179.486 2.85843 180.349 3.7042 181.005 4.73984C181.695 5.74096 182.092 6.91468 182.196 8.26102L182.247 8.72705H179.969C179.935 7.58785 179.641 6.60399 179.089 5.77548C178.536 4.94697 177.829 4.2738 176.966 3.75599C176.103 3.23817 175.119 2.85843 174.014 2.61678C172.909 2.34061 171.753 2.20253 170.545 2.20253C169.198 2.20253 167.938 2.34061 166.765 2.61678C165.591 2.89295 164.555 3.32447 163.658 3.91133C162.795 4.46367 162.104 5.20588 161.586 6.13796C161.103 7.03551 160.862 8.10567 160.862 9.34844C160.862 10.8329 161.189 12.0238 161.845 12.9214C162.501 13.8189 163.347 14.5439 164.383 15.0962C165.453 15.6486 166.661 16.0801 168.007 16.3908C169.388 16.7015 170.786 17.0122 172.202 17.3229C173.617 17.6335 174.998 18.0133 176.344 18.4621C177.725 18.8763 178.933 19.4632 179.969 20.2226C181.039 20.9476 181.902 21.9142 182.558 23.1224C183.214 24.2962 183.542 25.8151 183.542 27.6792C183.542 29.2327 183.197 30.6308 182.506 31.8736C181.85 33.0818 180.936 34.1002 179.762 34.9287C178.623 35.7572 177.294 36.3959 175.775 36.8447C174.256 37.2934 172.633 37.5178 170.907 37.5178C169.354 37.5178 167.8 37.3452 166.247 37C164.693 36.6893 163.295 36.1542 162.052 35.3948C160.844 34.6353 159.86 33.6342 159.101 32.3914C158.341 31.1486 157.962 29.6124 157.962 27.7828H160.188ZM192.2 32.5985C192.2 33.427 192.424 34.0657 192.873 34.5145C193.322 34.9287 193.926 35.1358 194.685 35.1358H201.262V37H194.685C193.304 37 192.182 36.603 191.319 35.809C190.491 34.9805 190.077 33.8413 190.077 32.3914V11.9375H185.675V10.0734H190.077V3.85955H192.2V10.0734H201.158V11.9375H192.2V32.5985ZM202.336 23.5885C202.336 21.7243 202.561 19.9465 203.01 18.2549C203.493 16.5634 204.218 15.079 205.184 13.8017C206.151 12.4899 207.359 11.4542 208.809 10.6948C210.294 9.9353 212.037 9.55556 214.039 9.55556C216.041 9.55556 217.767 9.9353 219.217 10.6948C220.702 11.4542 221.91 12.4899 222.842 13.8017C223.809 15.079 224.516 16.5634 224.965 18.2549C225.448 19.9465 225.69 21.7243 225.69 23.5885C225.69 25.4526 225.448 27.2305 224.965 28.922C224.516 30.579 223.809 32.0462 222.842 33.3235C221.91 34.6008 220.702 35.6191 219.217 36.3786C217.767 37.1381 216.041 37.5178 214.039 37.5178C212.037 37.5178 210.294 37.1381 208.809 36.3786C207.359 35.6191 206.151 34.6008 205.184 33.3235C204.218 32.0462 203.493 30.579 203.01 28.922C202.561 27.2305 202.336 25.4526 202.336 23.5885ZM204.563 23.5885C204.563 25.1765 204.736 26.6954 205.081 28.1453C205.461 29.5952 206.03 30.8725 206.79 31.9772C207.584 33.0818 208.568 33.9794 209.741 34.6698C210.949 35.3257 212.382 35.6537 214.039 35.6537C215.696 35.6537 217.112 35.3257 218.285 34.6698C219.459 33.9794 220.426 33.0818 221.185 31.9772C221.979 30.8725 222.549 29.5952 222.894 28.1453C223.274 26.6954 223.463 25.1765 223.463 23.5885C223.463 22.0005 223.274 20.4816 222.894 19.0317C222.549 17.5472 221.979 16.2527 221.185 15.148C220.426 14.0088 219.459 13.1113 218.285 12.4554C217.112 11.7649 215.696 11.4197 214.039 11.4197C212.382 11.4197 210.949 11.7649 209.741 12.4554C208.568 13.1113 207.584 13.9916 206.79 15.0962C206.03 16.2009 205.461 17.4955 205.081 18.9799C204.736 20.4298 204.563 21.966 204.563 23.5885ZM230.881 10.0734H233.004V15.6658C233.211 14.9754 233.505 14.3022 233.885 13.6463C234.299 12.9559 234.817 12.3518 235.438 11.834C236.059 11.3161 236.767 10.9019 237.561 10.5912C238.39 10.246 239.322 10.0734 240.357 10.0734H243.878V11.9375H240.461C239.115 11.9375 237.975 12.1964 237.043 12.7143C236.111 13.1976 235.334 13.8362 234.713 14.6302C234.126 15.4242 233.695 16.3217 233.419 17.3229C233.142 18.2895 233.004 19.2561 233.004 20.2226V37H230.881V10.0734ZM265.187 22.2939C265.187 20.7059 264.997 19.2561 264.617 17.9442C264.237 16.5979 263.685 15.4414 262.96 14.4748C262.235 13.5083 261.32 12.766 260.216 12.2482C259.111 11.6959 257.799 11.4197 256.28 11.4197C254.796 11.4197 253.484 11.7304 252.345 12.3518C251.24 12.9732 250.308 13.7844 249.549 14.7855C248.824 15.7867 248.271 16.9431 247.892 18.2549C247.512 19.5667 247.287 20.9131 247.218 22.2939H265.187ZM267.051 29.4916C266.568 31.8736 265.446 33.8068 263.685 35.2912C261.959 36.7756 259.577 37.5178 256.539 37.5178C254.502 37.5178 252.759 37.1553 251.309 36.4304C249.859 35.7055 248.668 34.7216 247.736 33.4788C246.804 32.2015 246.114 30.7171 245.665 29.0256C245.216 27.334 244.992 25.5389 244.992 23.6403C244.992 21.7761 245.216 19.9983 245.665 18.3067C246.114 16.6152 246.804 15.1308 247.736 13.8535C248.668 12.5417 249.842 11.506 251.257 10.7465C252.673 9.95256 254.347 9.55556 256.28 9.55556C258.179 9.55556 259.819 9.90078 261.2 10.5912C262.615 11.2816 263.771 12.231 264.669 13.4392C265.601 14.6129 266.291 16.0283 266.74 17.6853C267.189 19.3078 267.413 21.0684 267.413 22.9671V24.1063H247.218C247.218 25.6598 247.391 27.1442 247.736 28.5595C248.081 29.9404 248.634 31.1659 249.393 32.2361C250.153 33.2717 251.119 34.1002 252.293 34.7216C253.501 35.343 254.934 35.6537 256.591 35.6537C258.869 35.6537 260.699 35.1013 262.08 33.9966C263.495 32.8574 264.445 31.3558 264.928 29.4916H267.051Z" fill="white"/>
<path d="M4.38676 58.7526H26.8083V60.7203H6.61338V75.6853H24.6853V77.653H6.61338V93.0323H26.8083V95H4.38676V58.7526ZM31.5682 58.7526H33.6913V95H31.5682V58.7526ZM59.0471 80.2939C59.0471 78.7059 58.8572 77.2561 58.4775 75.9442C58.0977 74.5979 57.5454 73.4414 56.8204 72.4748C56.0955 71.5083 55.1807 70.766 54.076 70.2482C52.9713 69.6959 51.6595 69.4197 50.1406 69.4197C48.6561 69.4197 47.3443 69.7304 46.2051 70.3518C45.1005 70.9732 44.1684 71.7844 43.4089 72.7855C42.684 73.7867 42.1316 74.9431 41.7519 76.2549C41.3722 77.5667 41.1478 78.9131 41.0787 80.2939H59.0471ZM60.9112 87.4916C60.4279 89.8736 59.306 91.8068 57.5454 93.2912C55.8193 94.7756 53.4373 95.5178 50.3995 95.5178C48.3627 95.5178 46.6194 95.1553 45.1695 94.4304C43.7196 93.7055 42.5286 92.7216 41.5965 91.4788C40.6645 90.2015 39.974 88.7171 39.5253 87.0256C39.0765 85.334 38.8521 83.5389 38.8521 81.6403C38.8521 79.7761 39.0765 77.9983 39.5253 76.3067C39.974 74.6152 40.6645 73.1308 41.5965 71.8535C42.5286 70.5417 43.7023 69.506 45.1177 68.7465C46.5331 67.9526 48.2074 67.5556 50.1406 67.5556C52.0392 67.5556 53.679 67.9008 55.0598 68.5912C56.4752 69.2816 57.6317 70.231 58.5292 71.4392C59.4613 72.6129 60.1517 74.0283 60.6005 75.6853C61.0493 77.3078 61.2737 79.0684 61.2737 80.9671V82.1063H41.0787C41.0787 83.6598 41.2513 85.1442 41.5965 86.5595C41.9418 87.9404 42.4941 89.1659 43.2536 90.2361C44.013 91.2717 44.9796 92.1002 46.1534 92.7216C47.3616 93.343 48.7942 93.6537 50.4513 93.6537C52.7297 93.6537 54.5593 93.1013 55.9401 91.9966C57.3555 90.8574 58.3049 89.3558 58.7881 87.4916H60.9112ZM76.0663 92.7734C77.7924 92.7734 79.225 92.4282 80.3642 91.7377C81.5034 91.0128 82.401 90.1152 83.0569 89.0451C83.7473 87.9404 84.2306 86.7149 84.5068 85.3686C84.783 84.0222 84.921 82.7104 84.921 81.4331C84.8865 79.9487 84.7312 78.4988 84.455 77.0834C84.1788 75.6335 83.7128 74.339 83.0569 73.1998C82.401 72.0606 81.5034 71.1458 80.3642 70.4554C79.2596 69.7649 77.8442 69.4197 76.1181 69.4197C74.3575 69.4197 72.8904 69.7994 71.7166 70.5589C70.5429 71.3184 69.6108 72.285 68.9204 73.4587C68.23 74.5979 67.7467 75.8579 67.4705 77.2388C67.1944 78.5851 67.0563 79.8624 67.0563 81.0707C67.0563 82.3134 67.1944 83.6252 67.4705 85.0061C67.7467 86.3869 68.23 87.647 68.9204 88.7862C69.6108 89.9254 70.5257 90.8747 71.6649 91.6342C72.8386 92.3936 74.3057 92.7734 76.0663 92.7734ZM67.9366 97.1748C68.2127 99.2461 69.024 100.903 70.3703 102.146C71.7166 103.389 73.6844 104.01 76.2735 104.01C77.8269 104.01 79.156 103.768 80.2607 103.285C81.3653 102.836 82.2629 102.18 82.9533 101.317C83.6783 100.454 84.1961 99.4187 84.5068 98.2105C84.852 97.0368 85.0246 95.7422 85.0246 94.3268V87.9059C84.6794 88.8034 84.2479 89.6665 83.7301 90.495C83.2122 91.289 82.5563 91.9966 81.7623 92.618C81.0029 93.2394 80.1053 93.74 79.0697 94.1197C78.0686 94.4649 76.9121 94.6375 75.6003 94.6375C73.5635 94.6375 71.8547 94.206 70.4739 93.343C69.1275 92.4799 68.0401 91.3925 67.2116 90.0807C66.3831 88.7689 65.7962 87.319 65.451 85.731C65.1058 84.1431 64.9332 82.6069 64.9332 81.1224C64.9332 79.638 65.1058 78.1018 65.451 76.5138C65.8308 74.8913 66.4349 73.4242 67.2634 72.1124C68.0919 70.8006 69.1966 69.7131 70.5774 68.8501C71.9928 67.9871 73.7361 67.5556 75.8074 67.5556C77.1192 67.5556 78.2584 67.7454 79.225 68.1252C80.2261 68.5049 81.0892 69.0055 81.8141 69.6268C82.5736 70.2482 83.2122 70.9732 83.7301 71.8017C84.2479 72.6302 84.6794 73.5105 85.0246 74.4426V68.0734H87.1477V94.534C87.1477 96.191 86.9233 97.7099 86.4745 99.0908C86.0602 100.472 85.4043 101.663 84.5068 102.664C83.6438 103.699 82.5218 104.493 81.141 105.046C79.7946 105.598 78.1894 105.874 76.3252 105.874C74.6682 105.874 73.2011 105.65 71.9238 105.201C70.681 104.787 69.6108 104.2 68.7133 103.44C67.8157 102.681 67.1081 101.766 66.5902 100.696C66.1069 99.6259 65.7962 98.4521 65.6582 97.1748H67.9366ZM110.712 80.9671H104.394C101.149 80.9671 98.681 81.5194 96.9895 82.6241C95.2979 83.7288 94.4522 85.3858 94.4522 87.5952C94.4522 89.3903 95.1253 90.8574 96.4717 91.9966C97.8525 93.1013 99.6131 93.6537 101.753 93.6537C104.515 93.6537 106.673 92.9978 108.226 91.686C109.814 90.3741 110.643 88.5273 110.712 86.1453V80.9671ZM110.712 95V90.5468C109.987 92.1693 108.83 93.412 107.242 94.2751C105.689 95.1036 103.738 95.5178 101.391 95.5178C100.079 95.5178 98.8709 95.328 97.7662 94.9482C96.6615 94.534 95.6949 93.9816 94.8664 93.2912C94.0724 92.6008 93.451 91.7723 93.0023 90.8057C92.5535 89.8391 92.3291 88.7689 92.3291 87.5952C92.3291 81.9682 96.3508 79.1547 104.394 79.1547H110.712V75.7371C110.712 73.8384 110.039 72.3195 108.692 71.1803C107.38 70.0066 105.499 69.4197 103.048 69.4197C100.873 69.4197 99.0953 69.903 97.7144 70.8696C96.3336 71.8362 95.5051 73.2688 95.2289 75.1675H93.1058C93.382 72.682 94.4004 70.8006 96.161 69.5233C97.9561 68.2115 100.252 67.5556 103.048 67.5556C106.12 67.5556 108.52 68.2978 110.246 69.7822C111.972 71.2321 112.835 73.148 112.835 75.53V95H110.712ZM119.559 68.0216H121.682V73.0445C122.373 71.422 123.529 70.1101 125.152 69.109C126.774 68.0734 128.776 67.5556 131.158 67.5556C132.47 67.5556 133.661 67.78 134.731 68.2287C135.801 68.6775 136.716 69.3162 137.476 70.1447C138.235 70.9732 138.805 71.957 139.184 73.0962C139.599 74.2354 139.806 75.4782 139.806 76.8245V95H137.683V76.8245C137.683 74.5116 137.044 72.6992 135.767 71.3874C134.524 70.0756 132.764 69.4197 130.485 69.4197C129.104 69.4197 127.879 69.6441 126.809 70.0929C125.738 70.5071 124.824 71.1113 124.064 71.9052C123.305 72.6647 122.718 73.5623 122.304 74.5979C121.924 75.599 121.717 76.7037 121.682 77.912V95H119.559V68.0216ZM167.004 87.8023C166.625 90.3224 165.52 92.2383 163.69 93.5501C161.861 94.8619 159.565 95.5178 156.803 95.5178C154.801 95.5178 153.058 95.1381 151.573 94.3786C150.123 93.6191 148.898 92.6008 147.897 91.3235C146.93 90.0117 146.205 88.5273 145.722 86.8702C145.239 85.1787 144.997 83.4008 144.997 81.5367C144.997 79.638 145.221 77.8429 145.67 76.1514C146.153 74.4598 146.878 72.9754 147.845 71.6981C148.846 70.4208 150.089 69.4197 151.573 68.6948C153.058 67.9353 154.801 67.5556 156.803 67.5556C159.565 67.5556 161.861 68.246 163.69 69.6268C165.52 70.9732 166.625 72.8891 167.004 75.3746H164.881C164.433 73.3724 163.535 71.888 162.189 70.9214C160.842 69.9203 159.133 69.4197 157.062 69.4197C155.371 69.4197 153.886 69.7477 152.609 70.4036C151.366 71.025 150.331 71.888 149.502 72.9927C148.708 74.0974 148.104 75.3919 147.69 76.8763C147.31 78.3262 147.12 79.8797 147.12 81.5367C147.12 83.1937 147.31 84.7644 147.69 86.2488C148.104 87.6987 148.708 88.976 149.502 90.0807C150.331 91.1854 151.366 92.0657 152.609 92.7216C153.886 93.343 155.371 93.6537 157.062 93.6537C159.133 93.6537 160.842 93.1876 162.189 92.2556C163.535 91.289 164.433 89.8045 164.881 87.8023H167.004ZM190.565 80.2939C190.565 78.7059 190.375 77.2561 189.996 75.9442C189.616 74.5979 189.063 73.4414 188.339 72.4748C187.614 71.5083 186.699 70.766 185.594 70.2482C184.489 69.6959 183.178 69.4197 181.659 69.4197C180.174 69.4197 178.862 69.7304 177.723 70.3518C176.619 70.9732 175.686 71.7844 174.927 72.7855C174.202 73.7867 173.65 74.9431 173.27 76.2549C172.89 77.5667 172.666 78.9131 172.597 80.2939H190.565ZM192.429 87.4916C191.946 89.8736 190.824 91.8068 189.063 93.2912C187.337 94.7756 184.955 95.5178 181.918 95.5178C179.881 95.5178 178.137 95.1553 176.688 94.4304C175.238 93.7055 174.047 92.7216 173.115 91.4788C172.183 90.2015 171.492 88.7171 171.043 87.0256C170.595 85.334 170.37 83.5389 170.37 81.6403C170.37 79.7761 170.595 77.9983 171.043 76.3067C171.492 74.6152 172.183 73.1308 173.115 71.8535C174.047 70.5417 175.22 69.506 176.636 68.7465C178.051 67.9526 179.725 67.5556 181.659 67.5556C183.557 67.5556 185.197 67.9008 186.578 68.5912C187.993 69.2816 189.15 70.231 190.047 71.4392C190.979 72.6129 191.67 74.0283 192.119 75.6853C192.567 77.3078 192.792 79.0684 192.792 80.9671V82.1063H172.597C172.597 83.6598 172.769 85.1442 173.115 86.5595C173.46 87.9404 174.012 89.1659 174.772 90.2361C175.531 91.2717 176.498 92.1002 177.671 92.7216C178.88 93.343 180.312 93.6537 181.969 93.6537C184.248 93.6537 186.077 93.1013 187.458 91.9966C188.874 90.8574 189.823 89.3558 190.306 87.4916H192.429ZM211.611 85.7828C211.646 87.1291 211.922 88.3029 212.44 89.304C212.992 90.2706 213.734 91.0646 214.666 91.686C215.598 92.3073 216.72 92.7734 218.032 93.0841C219.344 93.3948 220.777 93.5501 222.33 93.5501C223.745 93.5501 225.075 93.3948 226.317 93.0841C227.56 92.7389 228.665 92.2383 229.631 91.5824C230.598 90.892 231.357 90.0635 231.91 89.0969C232.462 88.0957 232.738 86.9393 232.738 85.6275C232.738 84.005 232.41 82.6932 231.754 81.692C231.099 80.6909 230.235 79.8969 229.165 79.3101C228.13 78.6887 226.921 78.2054 225.541 77.8602C224.194 77.515 222.813 77.187 221.398 76.8763C219.983 76.5656 218.585 76.2204 217.204 75.8407C215.857 75.4609 214.649 74.9431 213.579 74.2872C212.543 73.5968 211.698 72.6992 211.042 71.5946C210.386 70.4899 210.058 69.0745 210.058 67.3484C210.058 65.795 210.368 64.4486 210.99 63.3094C211.611 62.1702 212.457 61.2382 213.527 60.5132C214.632 59.7538 215.909 59.1841 217.359 58.8044C218.843 58.4247 220.414 58.2348 222.071 58.2348C223.521 58.2348 224.919 58.4074 226.266 58.7526C227.612 59.0633 228.803 59.5466 229.839 60.2025C230.909 60.8584 231.772 61.7042 232.428 62.7398C233.118 63.741 233.515 64.9147 233.619 66.261L233.67 66.7271H231.392C231.357 65.5878 231.064 64.604 230.512 63.7755C229.959 62.947 229.252 62.2738 228.389 61.756C227.526 61.2382 226.542 60.8584 225.437 60.6168C224.332 60.3406 223.176 60.2025 221.968 60.2025C220.621 60.2025 219.361 60.3406 218.188 60.6168C217.014 60.893 215.978 61.3245 215.081 61.9113C214.218 62.4637 213.527 63.2059 213.009 64.138C212.526 65.0355 212.284 66.1057 212.284 67.3484C212.284 68.8329 212.612 70.0238 213.268 70.9214C213.924 71.8189 214.77 72.5439 215.806 73.0962C216.876 73.6486 218.084 74.0801 219.43 74.3908C220.811 74.7015 222.209 75.0122 223.625 75.3229C225.04 75.6335 226.421 76.0133 227.767 76.4621C229.148 76.8763 230.356 77.4632 231.392 78.2226C232.462 78.9476 233.325 79.9142 233.981 81.1224C234.637 82.2962 234.965 83.8151 234.965 85.6792C234.965 87.2327 234.62 88.6308 233.929 89.8736C233.273 91.0818 232.359 92.1002 231.185 92.9287C230.046 93.7572 228.717 94.3959 227.198 94.8447C225.679 95.2934 224.056 95.5178 222.33 95.5178C220.777 95.5178 219.223 95.3452 217.67 95C216.116 94.6893 214.718 94.1542 213.475 93.3948C212.267 92.6353 211.283 91.6342 210.524 90.3914C209.764 89.1486 209.385 87.6124 209.385 85.7828H211.611ZM240.723 58.7526H251.545C256.723 58.7526 260.573 60.1853 263.093 63.0505C265.613 65.8813 266.873 70.2482 266.873 76.1514C266.873 82.6759 265.63 87.4571 263.144 90.495C260.693 93.4983 256.844 95 251.597 95H240.723V58.7526ZM242.949 93.0323H251.597C253.91 93.0323 255.878 92.7043 257.5 92.0484C259.157 91.3925 260.504 90.3914 261.539 89.0451C262.609 87.6642 263.386 85.9036 263.869 83.7633C264.387 81.623 264.646 79.0857 264.646 76.1514C264.646 70.9041 263.593 67.0205 261.487 64.5004C259.382 61.9804 256.068 60.7203 251.545 60.7203H242.949V93.0323ZM293.23 58.7526H296.13L280.75 76.5656L297.217 95H294.265L277.902 76.5656L293.23 58.7526ZM274.795 95H272.569V58.7526H274.795V95Z" fill="#DFA1FF"/>
</svg>
