<svg width="136" height="29" viewBox="0 0 136 29" fill="none" xmlns="http://www.w3.org/2000/svg">
<path d="M35.5886 22.2379C34.9019 22.1295 34.2824 21.9694 33.7197 21.7681V19.383C35.0516 19.8167 36.3113 20.0283 37.5039 20.0283C38.5415 20.0283 39.3108 19.827 39.8219 19.4243C40.3278 19.0216 40.5808 18.4382 40.5808 17.6639C40.5808 17.2302 40.5033 16.8688 40.3484 16.5694C40.1936 16.27 39.9354 16.0067 39.5741 15.7744C39.2127 15.542 38.7222 15.3201 38.0924 15.1084L37.0805 14.7677C34.6077 13.9262 33.3687 12.3567 33.3687 10.0697C33.3687 9.04753 33.5906 8.1699 34.0398 7.43681C34.4889 6.70373 35.1549 6.14101 36.0429 5.74865C36.9308 5.36146 38.0305 5.16528 39.3314 5.16528C39.92 5.16528 40.5085 5.20142 41.0867 5.27886C41.6649 5.3563 42.176 5.45955 42.6148 5.59894V7.97372C41.701 7.68462 40.684 7.54006 39.5689 7.54006C37.3129 7.54006 36.1823 8.31445 36.1823 9.85806C36.1823 10.2762 36.2545 10.6221 36.3939 10.9009C36.5333 11.1797 36.7708 11.4326 37.096 11.6495C37.4264 11.8715 37.8807 12.078 38.4641 12.2741L39.476 12.6149C40.7615 13.0485 41.7372 13.6474 42.4031 14.4166C43.064 15.1858 43.3995 16.1874 43.3995 17.4212C43.3995 18.4589 43.1724 19.352 42.7129 20.0954C42.2534 20.8388 41.5875 21.4119 40.7098 21.8094C39.8322 22.2069 38.7739 22.4031 37.54 22.4031C36.9257 22.4031 36.2752 22.3515 35.5886 22.2379Z" fill="white"/>
<path d="M45.2737 8.13922C45.0208 7.90174 44.8969 7.56617 44.8969 7.13252C44.8969 6.69886 45.0208 6.3633 45.2737 6.12066C45.5267 5.88318 45.8984 5.75928 46.3888 5.75928C46.8793 5.75928 47.2561 5.88318 47.5091 6.12582C47.7621 6.36846 47.8911 6.70402 47.8911 7.13252C47.8911 7.56617 47.7672 7.90174 47.5143 8.13922C47.2613 8.3767 46.8896 8.49543 46.3888 8.49543C45.8984 8.49543 45.5267 8.3767 45.2737 8.13922Z" fill="white"/>
<path d="M47.8655 9.79626H45.1035V22.1864H47.8655V9.79626Z" fill="white"/>
<path d="M50.3125 9.79628H52.6047L52.8112 11.1231H52.9609C53.3533 10.6326 53.8179 10.2557 54.3496 9.99245C54.8814 9.72916 55.4699 9.6001 56.1152 9.6001C57.1684 9.6001 58.0047 9.93051 58.6191 10.5913C59.2334 11.2521 59.5432 12.3208 59.5432 13.7869V22.1813H56.7967V13.9986C56.7967 13.3017 56.6573 12.8061 56.3785 12.5118C56.0997 12.2175 55.7022 12.0678 55.186 12.0678C54.7936 12.0678 54.3961 12.1659 54.0037 12.3569C53.6114 12.5479 53.2965 12.8422 53.059 13.2397V22.1916H50.3125V9.79628Z" fill="white"/>
<path d="M65.2011 25.2013C66.2542 25.2013 67.0286 24.9587 67.5294 24.4734C68.0301 23.9881 68.2779 23.1724 68.2779 22.0212V20.9319H68.1437C67.8804 21.3655 67.5139 21.7063 67.0544 21.9644C66.5949 22.2225 66.0684 22.3516 65.4747 22.3516C64.7313 22.3516 64.055 22.1451 63.4406 21.7321C62.8263 21.3191 62.3307 20.6531 61.959 19.7393C61.5821 18.8255 61.3962 17.6536 61.3962 16.2288C61.3962 14.0192 61.8918 12.362 62.8779 11.2675C63.8639 10.1679 65.3611 9.61551 67.3693 9.61035C67.9888 9.61035 68.629 9.66198 69.2898 9.77039C69.9506 9.8788 70.5288 10.0182 71.0296 10.204V21.572C71.0296 23.6216 70.565 25.1135 69.646 26.0376C68.7219 26.9617 67.3177 27.4212 65.4334 27.4212C65.3353 27.4212 65.2991 27.4212 65.2011 27.416V25.2013ZM67.5397 19.7961C67.8546 19.6412 68.1024 19.4244 68.2831 19.1559V11.887C67.9062 11.8044 67.5242 11.7631 67.1473 11.7631C66.1716 11.7631 65.4385 12.0832 64.9481 12.7285C64.4576 13.3739 64.215 14.4528 64.215 15.9758C64.215 17.0341 64.3079 17.8653 64.4989 18.459C64.69 19.0527 64.9533 19.4657 65.2888 19.6928C65.6244 19.92 66.0529 20.0336 66.5691 20.0336C66.8995 20.0336 67.2248 19.9561 67.5397 19.7961Z" fill="white"/>
<path d="M73.4818 22.1916V3.8335H76.2283V22.1864H73.4818V22.1916Z" fill="white"/>
<path d="M87.4417 16.8742H80.9575C80.9885 17.7157 81.1124 18.3713 81.3344 18.8514C81.5564 19.3264 81.8919 19.6671 82.3462 19.8736C82.8005 20.0801 83.4046 20.1782 84.1635 20.1782C84.943 20.1782 85.8465 20.0337 86.8686 19.7445V21.9799C86.3162 22.1297 85.8 22.2432 85.3199 22.3103C84.8398 22.3775 84.3441 22.4136 83.8382 22.4136C82.5218 22.4136 81.4479 22.1968 80.6168 21.7579C79.7856 21.3191 79.1713 20.6325 78.7686 19.6929C78.3659 18.7482 78.1646 17.504 78.1646 15.9501C78.1646 13.8282 78.5827 12.2433 79.4191 11.185C80.2554 10.1267 81.4376 9.6001 82.9709 9.6001C85.9549 9.6001 87.4469 11.7426 87.4469 16.0275V16.8742H87.4417ZM81.8919 11.8097C81.608 12.0213 81.3808 12.393 81.2156 12.9248C81.0504 13.4565 80.9627 14.1845 80.9523 15.1189H84.8501C84.8449 14.1896 84.7623 13.4565 84.6126 12.9248C84.4629 12.393 84.2512 12.0213 83.9776 11.8097C83.704 11.598 83.3633 11.4896 82.9554 11.4896C82.5321 11.4896 82.1759 11.598 81.8919 11.8097Z" fill="white"/>
<path d="M91.106 22.2379C90.4194 22.1295 89.7999 21.9695 89.2372 21.7681V19.383C90.5691 19.8167 91.8288 20.0284 93.0213 20.0284C94.059 20.0284 94.8282 19.827 95.3393 19.4243C95.8452 19.0217 96.0982 18.4383 96.0982 17.6639C96.0982 17.2302 96.0208 16.8689 95.8659 16.5694C95.711 16.27 95.4529 16.0067 95.0915 15.7744C94.7301 15.5421 94.2397 15.3201 93.6099 15.1084L92.598 14.7677C90.12 13.921 88.8861 12.3516 88.8861 10.0646C88.8861 9.04241 89.1081 8.16477 89.5572 7.43169C90.0064 6.6986 90.6724 6.13588 91.5603 5.74353C92.4483 5.35634 93.5479 5.16016 94.8489 5.16016C95.4374 5.16016 96.0259 5.19629 96.6041 5.27373C97.1824 5.35117 97.6934 5.45442 98.1323 5.59381V7.96859C97.2185 7.67949 96.2015 7.53494 95.0863 7.53494C92.8303 7.53494 91.6997 8.30932 91.6997 9.85293C91.6997 10.2711 91.772 10.617 91.9114 10.8958C92.0508 11.1745 92.2882 11.4275 92.6135 11.6443C92.9439 11.8663 93.3982 12.0728 93.9816 12.269L94.9934 12.6097C96.2789 13.0434 97.2546 13.6423 97.9206 14.4115C98.5814 15.1807 98.917 16.1822 98.917 17.4161C98.917 18.4538 98.6898 19.3469 98.2303 20.0903C97.7709 20.8337 97.1049 21.4068 96.2273 21.8043C95.3496 22.2018 94.2913 22.398 93.0575 22.398C92.438 22.4031 91.7875 22.3515 91.106 22.2379Z" fill="white"/>
<path d="M107.001 19.8942V22.1864C106.402 22.331 105.783 22.4032 105.138 22.4032C103.842 22.4032 102.861 22.0625 102.185 21.3759C101.508 20.6893 101.173 19.6 101.173 18.1131V11.9903H99.2781V9.79624H101.173L101.663 5.37708H103.924V9.79624H106.898V11.9903H103.924V17.7827C103.924 18.3506 103.986 18.7998 104.115 19.125C104.244 19.4502 104.446 19.6826 104.719 19.8219C104.993 19.9613 105.36 20.0336 105.819 20.0336C106.098 20.0336 106.49 19.9871 107.001 19.8942Z" fill="white"/>
<path d="M109.087 20.8648C108.23 19.8323 107.802 18.2216 107.802 16.0429C107.802 11.7477 109.459 9.60522 112.768 9.60522C114.358 9.60522 115.582 10.1318 116.444 11.185C117.301 12.2381 117.735 13.8489 117.735 16.0223C117.735 20.2866 116.077 22.4187 112.773 22.4187C111.173 22.4187 109.944 21.8973 109.087 20.8648ZM113.945 19.951C114.25 19.7084 114.487 19.2747 114.658 18.6552C114.828 18.0357 114.905 17.1736 114.905 16.0636C114.905 14.9278 114.823 14.0399 114.658 13.4049C114.492 12.7699 114.255 12.3259 113.94 12.0781C113.625 11.8303 113.238 11.7012 112.768 11.7012C112.293 11.7012 111.896 11.8251 111.586 12.0729C111.276 12.3207 111.039 12.7544 110.873 13.3842C110.708 14.0141 110.626 14.8814 110.626 15.9965C110.626 17.1271 110.708 18.0047 110.873 18.6294C111.039 19.2592 111.276 19.6929 111.586 19.9407C111.891 20.1885 112.288 20.3124 112.773 20.3124C113.248 20.3176 113.635 20.1937 113.945 19.951Z" fill="white"/>
<path d="M119.65 9.79632H121.921L122.138 11.5H122.272C122.577 10.865 122.985 10.3952 123.506 10.0958C124.023 9.79632 124.611 9.64661 125.272 9.64661C125.535 9.64661 125.799 9.66726 126.057 9.71372V12.2795C125.799 12.2331 125.484 12.2124 125.102 12.2124C124.549 12.2124 124.028 12.3415 123.532 12.5944C123.042 12.8474 122.66 13.1985 122.396 13.6476V22.1865H119.65V9.79632Z" fill="white"/>
<path d="M135.994 16.8742H129.51C129.541 17.7157 129.665 18.3713 129.887 18.8514C130.109 19.3264 130.445 19.6671 130.899 19.8736C131.353 20.0801 131.957 20.1782 132.716 20.1782C133.496 20.1782 134.399 20.0337 135.421 19.7445V21.9799C134.869 22.1297 134.353 22.2432 133.873 22.3103C133.392 22.3775 132.897 22.4136 132.391 22.4136C131.074 22.4136 130.001 22.1968 129.17 21.7579C128.338 21.3191 127.724 20.6325 127.321 19.6929C126.919 18.7482 126.717 17.504 126.717 15.9501C126.717 13.8282 127.135 12.2433 127.972 11.185C128.808 10.1267 129.99 9.6001 131.524 9.6001C134.508 9.6001 136 11.7426 136 16.0275V16.8742H135.994ZM130.445 11.8097C130.161 12.0213 129.934 12.393 129.768 12.9248C129.603 13.4565 129.515 14.1845 129.505 15.1189H133.403C133.398 14.1896 133.315 13.4565 133.165 12.9248C133.016 12.393 132.804 12.0213 132.53 11.8097C132.257 11.598 131.916 11.4896 131.508 11.4896C131.085 11.4896 130.729 11.598 130.445 11.8097Z" fill="white"/>
<mask id="path-13-inside-1_94_132" fill="white">
<path d="M14.8686 0C17.9166 0.847727 20.6936 2.984 21.8451 5.595C23.6062 9.83363 23.1998 15.1913 21.2694 18.3787C19.6438 20.9897 17.1376 22.38 14.259 22.3461C9.7886 22.3122 6.16488 18.7517 6.13101 14.2757C6.13101 9.79972 9.65313 6.10363 14.259 6.10363C15.0041 6.10363 16.0783 6.20696 17.2975 6.7156C17.2975 6.7156 16.421 6.19644 14.17 5.8477C7.70144 4.99998 0.0688958 9.90145 1.82996 21.1932C4.26835 25.5335 8.94194 28.4836 14.259 28.4497C22.0822 28.4158 28.483 22.007 28.4491 14.1401C28.4491 6.61227 22.3192 0.203454 14.8686 0Z"/>
</mask>
<path d="M14.8686 0C17.9166 0.847727 20.6936 2.984 21.8451 5.595C23.6062 9.83363 23.1998 15.1913 21.2694 18.3787C19.6438 20.9897 17.1376 22.38 14.259 22.3461C9.7886 22.3122 6.16488 18.7517 6.13101 14.2757C6.13101 9.79972 9.65313 6.10363 14.259 6.10363C15.0041 6.10363 16.0783 6.20696 17.2975 6.7156C17.2975 6.7156 16.421 6.19644 14.17 5.8477C7.70144 4.99998 0.0688958 9.90145 1.82996 21.1932C4.26835 25.5335 8.94194 28.4836 14.259 28.4497C22.0822 28.4158 28.483 22.007 28.4491 14.1401C28.4491 6.61227 22.3192 0.203454 14.8686 0Z" fill="white"/>
<path d="M14.8686 0L15.3565 -17.8684L10.0789 17.2214L14.8686 0ZM21.8451 5.595L38.3521 -1.26331L38.2781 -1.44135L38.2003 -1.61775L21.8451 5.595ZM21.2694 18.3787L36.4438 27.8262L36.502 27.7327L36.559 27.6385L21.2694 18.3787ZM14.259 22.3461L14.4695 4.47226L14.4321 4.47182L14.3946 4.47153L14.259 22.3461ZM6.13101 14.2757H-11.744V14.3433L-11.7435 14.411L6.13101 14.2757ZM17.2975 6.7156L10.4152 23.2126L26.407 -8.66412L17.2975 6.7156ZM14.17 5.8477L16.9066 -11.8166L16.7 -11.8486L16.4927 -11.8758L14.17 5.8477ZM1.82996 21.1932L-15.8316 23.9477L-15.3344 27.1354L-13.7542 29.9483L1.82996 21.1932ZM14.259 28.4497L14.1815 10.5748L14.1633 10.5749L14.145 10.575L14.259 28.4497ZM28.4491 14.1401H10.574V14.1786L10.5742 14.217L28.4491 14.1401ZM10.0789 17.2214C9.29194 17.0025 8.60379 16.6512 7.96439 16.1444C7.35689 15.6628 6.2981 14.6405 5.48986 12.8077L38.2003 -1.61775C34.4501 -10.1215 26.7215 -15.2569 19.6583 -17.2214L10.0789 17.2214ZM5.3381 12.4533C5.1793 12.0711 5.12709 11.809 5.10876 11.6917C5.09004 11.5719 5.0886 11.489 5.09261 11.4147C5.09633 11.3461 5.1111 11.1632 5.19675 10.8545C5.27638 10.5674 5.48088 9.94257 5.9797 9.11893L36.559 27.6385C41.7286 19.1026 42.0756 7.69858 38.3521 -1.26331L5.3381 12.4533ZM6.09498 8.9312C6.72847 7.9137 7.8167 6.70591 9.46491 5.77799C11.1295 4.84086 12.9003 4.45377 14.4695 4.47226L14.0484 40.2199C23.492 40.3311 31.686 35.4681 36.4438 27.8262L6.09498 8.9312ZM14.3946 4.47153C19.5167 4.51038 23.9642 8.67742 24.0056 14.1405L-11.7435 14.411C-11.6345 28.826 0.0604981 40.1139 14.1234 40.2206L14.3946 4.47153ZM24.0061 14.2757C24.0061 19.3579 19.8363 23.9787 14.259 23.9787V-11.7714C-0.530053 -11.7714 -11.744 0.241562 -11.744 14.2757H24.0061ZM14.259 23.9787C13.2985 23.9787 11.9105 23.8364 10.4152 23.2126L24.1799 -9.78139C20.2462 -11.4225 16.7096 -11.7714 14.259 -11.7714V23.9787ZM17.2975 6.7156C26.407 -8.66412 26.4007 -8.66782 26.3945 -8.67152C26.3924 -8.67275 26.3861 -8.67645 26.382 -8.67891C26.3736 -8.68385 26.3652 -8.68878 26.3568 -8.69371C26.34 -8.70358 26.3232 -8.71345 26.3063 -8.72332C26.2725 -8.74305 26.2384 -8.76279 26.204 -8.78253C26.1354 -8.82202 26.0657 -8.8615 25.9949 -8.90095C25.8535 -8.97987 25.7079 -9.05866 25.5582 -9.13716C25.2588 -9.29421 24.9434 -9.44982 24.6116 -9.60287C23.9473 -9.90923 23.221 -10.2035 22.4289 -10.4779C20.8431 -11.0272 19.0128 -11.4903 16.9066 -11.8166L11.4334 23.512C11.5782 23.5345 11.3117 23.5053 10.7269 23.3028C10.4353 23.2018 10.0688 23.059 9.63923 22.8609C9.42472 22.762 9.19539 22.6497 8.9527 22.5224C8.8314 22.4588 8.70689 22.3915 8.57934 22.3203C8.51558 22.2847 8.45107 22.2482 8.38585 22.2107C8.35324 22.192 8.32045 22.173 8.28749 22.1538C8.27101 22.1441 8.25449 22.1345 8.23792 22.1247C8.22963 22.1198 8.22134 22.115 8.21303 22.1101C8.20888 22.1076 8.20264 22.1039 8.20057 22.1027C8.19433 22.099 8.18809 22.0953 17.2975 6.7156ZM16.4927 -11.8758C8.19703 -12.963 -1.05205 -10.4374 -7.81165 -3.58491C-14.9916 3.69372 -17.4175 13.7788 -15.8316 23.9477L19.4915 18.4387C19.3848 17.7547 19.5378 17.9482 19.3198 18.7275C19.0899 19.5494 18.5638 20.584 17.6394 21.5212C15.8729 23.3119 13.6744 23.8107 11.8472 23.5712L16.4927 -11.8758ZM-13.7542 29.9483C-8.29225 39.6706 2.23165 46.4018 14.373 46.3244L14.145 10.575C15.6522 10.5654 16.829 11.3965 17.4141 12.4381L-13.7542 29.9483ZM14.3365 46.3246C31.9899 46.2481 46.4005 31.8434 46.324 14.0631L10.5742 14.217C10.5654 12.1706 12.1744 10.5835 14.1815 10.5748L14.3365 46.3246ZM46.3241 14.1401C46.3241 -2.83032 32.7233 -17.3942 15.3565 -17.8684L14.3807 17.8684C13.0339 17.8316 12.0751 17.2415 11.5528 16.697C11.0343 16.1565 10.574 15.2831 10.574 14.1401H46.3241Z" fill="white" mask="url(#path-13-inside-1_94_132)"/>
<path d="M14.056 1.46356L14.056 1.4636L14.0602 1.4647C16.7377 2.15974 18.9082 3.91105 19.9572 6.1085C20.4933 7.28468 20.6733 8.03826 20.7738 9.01793C18.9218 6.66728 15.7411 5.51799 12.5945 5.58038L12.5943 5.58038C9.26119 5.64955 6.11324 7.0062 4.05642 9.74547C2.16156 12.2691 1.21602 15.9346 1.86705 20.7763C1.00923 19.2624 -0.30742 15.5358 0.508578 11.3947C0.547439 11.328 0.55583 11.2634 0.557581 11.2227L0.601293 11.0476L0.646744 10.8656C0.658076 10.8381 0.665829 10.8123 0.67143 10.791C0.678673 10.7634 0.68418 10.7359 0.688099 10.7162L0.688584 10.7138C0.693106 10.6911 0.69591 10.6775 0.698946 10.666C0.700387 10.6605 0.701388 10.6575 0.701781 10.6563L0.727334 10.6052V10.5457C0.727334 10.5495 0.727396 10.5492 0.728419 10.5435C0.729918 10.5352 0.733481 10.5155 0.741935 10.4806C0.753819 10.4316 0.770561 10.3712 0.789329 10.3065C0.801345 10.2651 0.814699 10.2202 0.827801 10.1763C0.852906 10.092 0.877087 10.0109 0.889159 9.96252L0.896666 9.93245V9.91187L0.900942 9.90146C0.903271 9.89578 0.907115 9.88633 0.910906 9.87558C0.915161 9.8635 0.921173 9.84494 0.92542 9.82163C1.45711 8.20147 2.3517 6.57798 3.71139 5.01679C4.77361 3.85411 6.56318 2.36241 9.1112 1.59922C10.1382 1.33422 11.1297 1.20202 12.1533 1.20151C12.8548 1.23517 13.4747 1.30189 14.056 1.46356Z" fill="white" stroke="white" stroke-width="0.504091"/>
</svg>
